<svg width="750" height="500" viewBox="0 0 750 500" fill="none" xmlns="http://www.w3.org/2000/svg">
<rect width="750" height="500" fill="#222222"/>
<path d="M112.742 250L99.6348 263.096L86.5386 250L99.6348 236.904L112.742 250ZM144.52 218.2L166.962 240.653L180.058 227.557L144.52 192.019L108.981 227.557L122.077 240.653L144.52 218.2ZM189.416 236.904L176.32 250L189.416 263.096L202.501 250L189.416 236.904ZM144.52 281.8L122.077 259.357L108.981 272.442L144.52 307.981L180.058 272.442L166.962 259.357L144.52 281.8ZM144.52 263.096L157.616 250L144.52 236.904L131.424 250L144.52 263.096ZM282.732 264.353V264.172C282.732 255.63 278.201 251.359 270.825 248.55C275.357 246.001 279.186 242.002 279.186 234.83V234.649C279.186 224.657 271.188 218.2 258.194 218.2H228.693V281.8H258.941C273.295 281.8 282.755 275.988 282.755 264.353H282.732ZM265.286 237.164C265.286 241.888 261.377 243.893 255.203 243.893H242.322V230.469H256.132C262.034 230.469 265.308 232.825 265.308 237.006L265.286 237.164ZM268.832 262.609C268.832 267.333 265.104 269.508 258.919 269.508H242.322V255.54H258.488C265.671 255.54 268.854 258.179 268.854 262.45L268.832 262.609ZM312.131 281.8V218.2H298.094V281.8H312.131ZM387.343 281.8V218.2H373.488V257.364L343.693 218.2H330.789V281.8H344.599V241.367L375.391 281.8H387.343ZM464.844 281.8L437.541 217.746H424.638L397.392 281.8H411.655L417.489 267.537H444.384L450.196 281.8H464.844ZM439.41 255.177H422.462L430.914 234.558L439.41 255.177ZM531.537 281.8V218.2H517.682V257.364L487.875 218.2H474.983V281.8H488.782V241.367L519.585 281.8H531.537ZM603.758 271.536L594.865 262.541C589.869 267.072 585.417 269.984 578.144 269.984C567.245 269.984 559.7 260.921 559.7 250V249.818C559.7 238.92 567.427 230.016 578.144 230.016C584.499 230.016 589.473 232.735 594.412 237.187L603.283 226.923C597.38 221.111 590.209 217.112 578.212 217.112C558.681 217.112 545.052 231.919 545.052 249.966V250.147C545.052 268.409 558.953 282.854 577.668 282.854C589.915 282.887 597.176 278.526 603.713 271.536H603.758ZM663.462 281.8V269.338H628.886V255.959H658.873V243.497H628.886V230.65H662.963V218.188H614.985V281.789L663.462 281.8Z" fill="#F0B90B"/>
</svg>
