<svg width="834" height="500" viewBox="0 0 834 500" fill="none" xmlns="http://www.w3.org/2000/svg">
<g clip-path="url(#clip0_461_22)">
<path d="M0 0H834V500H0V0Z" fill="#253B80"/>
<path d="M530.883 228.9C528.214 246.367 514.778 246.367 501.776 246.367H494.387L499.566 213.758C499.716 212.801 500.205 211.929 500.944 211.302C501.684 210.675 502.624 210.334 503.594 210.342H506.988C515.846 210.342 524.194 210.342 528.506 215.342C531.083 218.325 531.85 222.758 530.883 228.9ZM525.228 183.333H476.222C474.606 183.337 473.044 183.912 471.812 184.957C470.58 186.002 469.758 187.449 469.492 189.042L449.676 313.775C449.535 314.649 449.685 315.545 450.104 316.325C450.523 317.105 451.187 317.726 451.994 318.092C452.534 318.342 453.104 318.467 453.704 318.467H478.858C479.988 318.469 481.082 318.07 481.943 317.34C482.805 316.61 483.379 315.597 483.561 314.483L489.191 279.108C489.455 277.517 490.276 276.071 491.507 275.028C492.737 273.984 494.299 273.41 495.913 273.408H511.417C543.693 273.408 562.341 257.9 567.203 227.158C569.397 213.725 567.287 203.158 560.948 195.767C553.976 187.642 541.624 183.333 525.228 183.333ZM181.328 228.9C178.659 246.367 165.224 246.367 152.222 246.367H144.841L150.02 213.758C150.17 212.801 150.659 211.929 151.398 211.302C152.138 210.675 153.078 210.334 154.048 210.342H157.442C166.283 210.342 174.639 210.342 178.96 215.342C181.528 218.325 182.304 222.758 181.328 228.9ZM175.674 183.333H126.676C125.059 183.337 123.495 183.914 122.263 184.96C121.031 186.007 120.21 187.456 119.946 189.05L100.13 313.775C99.9879 314.652 100.14 315.552 100.562 316.334C100.984 317.116 101.653 317.737 102.465 318.1C102.999 318.35 103.566 318.475 104.166 318.475H127.568C130.913 318.475 133.765 316.058 134.299 312.767L139.636 279.108C139.888 277.51 140.706 276.055 141.942 275.009C143.177 273.963 144.748 273.395 146.367 273.408H161.871C194.147 273.408 212.795 257.9 217.666 227.158C219.851 213.725 217.749 203.158 211.411 195.767C204.43 187.642 192.078 183.333 175.674 183.333ZM289.44 273.675C287.188 286.992 276.538 295.925 262.96 295.925C256.155 295.925 250.7 293.758 247.197 289.633C243.728 285.55 242.41 279.742 243.52 273.283C245.63 260.083 256.447 250.858 269.816 250.858C276.488 250.858 281.892 253.058 285.478 257.217C289.064 261.383 290.482 267.242 289.44 273.675ZM322.157 228.342H298.689C297.72 228.34 296.782 228.683 296.042 229.309C295.303 229.935 294.81 230.803 294.652 231.758L293.61 238.275L291.975 235.917C286.888 228.592 275.562 226.142 264.253 226.142C238.324 226.142 216.181 245.642 211.869 273C209.634 286.658 212.812 299.692 220.61 308.792C227.774 317.158 237.982 320.642 250.158 320.642C271.067 320.642 282.651 307.308 282.651 307.308L281.608 313.792C281.47 314.666 281.624 315.562 282.046 316.341C282.468 317.119 283.135 317.737 283.944 318.1C284.477 318.35 285.044 318.475 285.645 318.475H306.778C310.131 318.475 312.983 316.058 313.5 312.767L326.194 233.017C326.286 232.436 326.25 231.842 326.089 231.276C325.928 230.71 325.646 230.186 325.262 229.74C324.878 229.294 324.401 228.938 323.865 228.695C323.329 228.452 322.746 228.337 322.157 228.342ZM639.011 273.675C636.742 286.992 626.1 295.925 612.523 295.925C605.717 295.925 600.255 293.758 596.76 289.633C593.282 285.55 591.973 279.742 593.082 273.283C595.201 260.083 606.009 250.858 619.378 250.858C626.05 250.858 631.455 253.058 635.024 257.217C638.61 261.383 640.028 267.242 639.011 273.675ZM671.72 228.342H648.243C647.275 228.342 646.34 228.686 645.602 229.312C644.864 229.938 644.373 230.804 644.215 231.758L643.172 238.275L641.538 235.917C636.45 228.592 625.125 226.142 613.816 226.142C587.886 226.142 565.744 245.642 561.432 273C559.18 286.658 562.374 299.692 570.172 308.792C577.336 317.158 587.544 320.642 599.721 320.642C620.629 320.642 632.214 307.308 632.214 307.308L631.171 313.792C631.033 314.666 631.187 315.562 631.609 316.341C632.031 317.119 632.698 317.737 633.506 318.1C634.04 318.35 634.607 318.475 635.208 318.475H656.333C659.694 318.475 662.546 316.058 663.063 312.767L675.757 233.017C675.901 232.141 675.749 231.243 675.327 230.463C674.904 229.683 674.234 229.066 673.422 228.708C672.887 228.465 672.307 228.345 671.72 228.342ZM447.149 228.333H423.563C422.454 228.336 421.362 228.608 420.381 229.126C419.4 229.644 418.56 230.393 417.934 231.308L385.391 278.875L371.605 233.158C371.187 231.755 370.325 230.526 369.147 229.656C367.969 228.785 366.54 228.321 365.075 228.333H341.89C340.914 228.341 339.973 228.695 339.234 229.331C338.494 229.967 338.005 230.845 337.853 231.808C337.765 232.444 337.825 233.091 338.028 233.7L363.999 309.383L339.563 343.592C339.124 344.199 338.862 344.916 338.807 345.664C338.753 346.411 338.907 347.159 339.253 347.824C339.599 348.488 340.123 349.044 340.767 349.428C341.411 349.813 342.149 350.011 342.899 350H366.459C367.56 350 368.643 349.735 369.619 349.227C370.595 348.719 371.433 347.984 372.064 347.083L450.502 234.7C450.927 234.091 451.176 233.377 451.222 232.635C451.269 231.894 451.11 231.154 450.764 230.497C450.418 229.84 449.898 229.291 449.26 228.909C448.623 228.527 447.892 228.328 447.149 228.333ZM699.376 186.758L679.268 313.792C679.176 314.372 679.211 314.966 679.372 315.531C679.533 316.097 679.816 316.62 680.2 317.065C680.584 317.51 681.061 317.866 681.597 318.108C682.134 318.35 682.716 318.473 683.304 318.467H703.529C706.882 318.467 709.742 316.05 710.259 312.767L730.1 188.025C730.194 187.443 730.159 186.847 729.998 186.279C729.837 185.712 729.554 185.187 729.169 184.74C728.784 184.293 728.306 183.935 727.768 183.693C727.23 183.45 726.645 183.327 726.055 183.333H703.42C702.447 183.328 701.505 183.671 700.762 184.299C700.019 184.926 699.532 185.799 699.376 186.758Z" fill="white"/>
</g>
<defs>
<clipPath id="clip0_461_22">
<rect width="834" height="500" fill="white"/>
</clipPath>
</defs>
</svg>
