<svg width="1000" height="500" viewBox="0 0 1000 500" fill="none" xmlns="http://www.w3.org/2000/svg">
<g clip-path="url(#clip0_461_25)">
<path d="M958.333 0H41.6667C18.6548 0 0 18.6548 0 41.6667V458.333C0 481.345 18.6548 500 41.6667 500H958.333C981.345 500 1000 481.345 1000 458.333V41.6667C1000 18.6548 981.345 0 958.333 0Z" fill="white"/>
<path d="M179.471 179.782H169.817C168.94 183.731 168.501 187.681 168.062 191.63L161.041 234.194H172.889C188.247 234.194 199.656 221.469 199.656 202.161C199.656 188.558 191.758 179.782 179.471 179.782ZM310.236 225.857C303.215 225.857 298.388 239.46 295.755 250.43H299.704C308.48 250.43 315.501 244.726 316.379 237.705V235.072C316.379 232.878 315.94 230.684 314.624 228.929C314.185 227.173 312.43 225.857 310.236 225.857ZM539.731 227.612C539.293 227.612 539.293 227.173 538.854 227.173C538.415 226.734 537.537 226.734 537.099 226.734C535.782 226.734 534.466 227.173 533.588 228.051C533.149 228.49 532.711 228.49 532.272 228.929C531.833 229.367 531.833 229.806 531.394 229.806C529.2 232.878 527.445 235.949 526.567 239.46C526.128 239.899 526.128 240.776 525.69 241.654C524.812 243.848 524.373 246.481 523.496 248.675L522.179 254.379C521.302 260.523 520.424 267.105 520.424 273.687L520.863 283.341C520.794 284.099 520.947 284.861 521.302 285.535L522.618 290.8L523.934 293.433C525.251 296.066 526.567 297.382 528.323 297.382C529.2 297.382 529.639 297.382 530.517 296.944C531.394 296.505 532.272 296.066 533.149 295.188C535.782 292.117 538.415 286.851 540.609 279.83L541.926 274.564L543.242 267.982L544.12 258.767C544.558 255.696 544.558 253.063 544.558 249.991C544.997 243.848 544.12 237.266 541.926 231.123C541.926 230.245 541.048 228.49 539.731 227.612ZM875.857 266.227L878.051 251.308C887.705 250.43 895.165 248.675 900.869 244.726C907.89 240.337 916.666 232 916.666 215.764C916.666 206.988 914.472 198.651 910.523 191.191C906.135 183.293 897.798 178.466 889.022 178.466H887.705C887.266 165.302 876.296 155.209 863.132 154.77C850.845 154.77 838.559 155.648 826.711 157.403C816.18 159.158 807.842 168.812 806.087 179.343C806.087 179.782 778.004 179.343 759.574 179.343C745.093 179.343 737.633 186.364 737.633 186.364C737.633 186.364 730.612 177.149 711.744 179.343C702.529 179.782 693.753 181.099 684.538 182.854C686.293 171.445 687.609 160.036 688.048 148.627V147.749C688.048 134.146 677.078 123.176 663.475 122.737C645.484 122.737 624.86 125.37 614.329 127.564C602.92 130.636 595.021 141.167 595.46 153.015C595.899 163.546 591.072 195.14 591.072 195.14C579.663 185.487 564.305 180.221 546.752 180.221C530.955 180.221 515.158 183.731 501.116 191.191C496.29 185.925 489.269 182.415 482.248 182.854C468.206 182.854 457.675 182.854 447.582 183.731C439.684 184.17 432.663 188.558 428.275 195.579C427.836 195.14 427.836 194.702 427.397 194.263C423.009 186.364 414.672 181.537 405.895 181.537C387.466 181.537 355.433 186.803 354.116 187.681C343.146 182.854 331.298 180.221 319.012 180.66C301.021 180.221 283.468 185.048 268.549 194.263C265.916 156.964 233.883 131.513 188.247 131.513C188.247 131.513 132.519 133.707 122.426 135.902C110.579 138.534 102.241 149.505 103.119 161.352C103.119 169.69 102.68 178.466 100.925 187.681L84.689 292.117C83.3725 298.26 80.3009 317.129 92.1487 331.17C96.9755 336.875 105.752 343.457 121.11 343.457C128.131 343.457 146.999 342.579 162.358 335.559C166.307 333.803 169.817 330.732 172.45 327.221C180.788 336.875 193.074 343.896 211.065 343.896C226.862 343.896 242.221 339.947 256.262 332.926C268.988 340.385 283.468 344.335 298.388 343.896C325.155 343.896 350.167 333.364 365.964 315.373C374.74 337.753 390.976 343.018 404.14 343.018C415.11 343.018 428.275 341.702 441.439 335.12C452.409 329.854 457.236 311.863 459.43 307.914C470.4 329.854 492.34 343.457 519.985 343.457C541.926 343.457 563.427 336.436 580.979 322.394C582.296 324.588 583.612 326.344 584.929 328.099C590.633 334.681 601.603 342.579 620.472 342.579C634.075 343.018 647.678 339.069 658.648 331.609C664.791 337.753 674.884 343.457 690.242 343.457C701.651 343.457 713.06 340.385 723.153 335.12C730.612 340.385 740.266 343.018 751.675 343.018C769.666 343.018 785.902 336.875 796.433 325.905C805.21 334.681 820.568 343.457 846.896 343.457C871.031 343.457 895.165 328.099 907.451 307.475C917.105 292.117 906.574 264.911 875.857 266.227ZM243.537 201.723C242.221 221.03 229.934 236.827 211.065 246.92L228.179 292.117C233.006 304.403 236.077 309.23 241.343 313.179C240.027 314.057 238.71 314.496 237.394 314.935C229.056 317.567 219.841 319.323 211.065 318.884C202.289 318.884 190.441 316.69 182.982 295.188L170.256 258.329H157.531L151.826 293.433C150.949 297.382 150.51 301.332 150.51 305.281V306.158C150.51 308.353 150.949 310.547 151.826 312.741C142.173 317.129 129.008 318.445 121.11 318.445C114.528 318.445 108.385 316.251 107.946 304.842C107.946 301.77 108.385 298.699 108.823 295.627L125.059 191.191C126.376 183.293 127.253 174.955 127.253 167.057V158.719C132.519 157.403 151.388 155.209 168.501 155.209H187.37C198.779 154.77 209.749 157.403 220.28 161.791C222.913 163.108 225.985 164.863 228.179 166.618C230.373 168.373 232.567 170.567 234.761 172.761C237.394 176.272 239.588 179.782 241.343 184.17C242.659 188.558 243.537 192.946 243.537 197.773V201.723ZM306.286 271.932C304.531 271.932 302.776 272.37 301.459 272.37H294.439V275.003C295.316 287.29 300.582 297.821 311.991 297.821H314.624C325.594 296.505 332.176 288.606 337.88 288.606C340.513 289.045 343.146 289.923 345.34 291.239L351.045 294.75C347.095 300.454 342.268 305.281 336.125 308.791C324.716 316.251 311.552 319.761 297.949 319.761C268.988 319.761 251.435 303.526 250.119 277.636V273.248C250.119 240.337 271.621 204.355 319.451 204.355C326.471 204.355 333.492 205.233 339.636 207.427C351.045 211.376 357.627 219.714 357.627 230.684C358.066 243.848 349.728 267.982 306.286 271.932ZM439.245 292.994C435.295 299.576 431.785 306.597 429.152 314.057C421.254 318.006 412.478 318.884 403.701 318.884C396.242 318.884 389.221 315.373 385.71 296.066L374.74 241.215C372.546 230.245 369.036 219.275 364.648 208.743C368.597 207.866 372.546 206.988 376.495 206.549C377.373 206.549 378.251 206.111 379.128 206.111H379.567C380.445 206.111 381.322 206.111 382.639 205.672H383.078C385.272 205.672 387.466 205.233 390.098 205.233H406.334C408.089 208.743 409.845 212.254 411.161 215.764C411.6 217.081 412.039 217.958 412.478 219.275C413.355 221.908 413.794 224.54 414.233 227.173L421.692 277.197C427.836 265.349 433.54 253.063 438.806 240.776C442.316 232.439 445.388 224.102 447.582 215.326C448.46 212.254 448.898 209.621 449.776 206.549C452.409 206.111 455.042 206.111 457.675 206.111H482.248C481.37 213.57 479.615 220.591 476.543 227.612C466.012 249.991 452.848 271.493 439.245 292.994ZM575.714 293.433C571.764 298.699 566.937 303.087 561.672 306.597C560.794 307.475 559.478 307.914 558.6 308.791C558.6 308.791 558.161 308.791 558.161 309.23C557.284 309.669 556.406 310.547 555.529 310.985C555.529 310.985 555.09 310.985 555.09 311.424C554.212 311.863 553.334 312.302 552.018 312.741C552.018 312.741 551.579 312.741 551.579 313.179C550.263 313.618 549.385 314.057 548.069 314.496C545.875 315.373 543.242 316.251 540.609 317.129C540.17 317.129 540.17 317.129 539.731 317.567C538.854 318.006 537.976 318.006 537.099 318.445C536.66 318.445 536.221 318.445 535.782 318.884C534.905 318.884 534.027 319.323 533.149 319.323C532.711 319.323 532.272 319.323 531.833 319.761C530.955 319.761 530.078 320.2 529.2 320.2H513.403C512.525 320.2 511.209 319.761 510.331 319.761C509.893 319.761 509.015 319.323 508.576 319.323C507.699 319.323 506.821 318.884 505.943 318.884C505.505 318.884 504.627 318.445 504.188 318.445C503.311 318.006 502.433 318.006 501.994 317.567C501.555 317.129 500.678 317.129 500.239 316.69C499.361 316.251 498.922 316.251 498.045 315.812C497.606 315.373 496.728 315.373 496.29 314.935C495.851 314.496 494.973 314.057 494.534 313.618C494.096 313.179 493.657 312.741 492.779 312.741C492.34 312.302 491.463 311.863 491.024 311.424L485.758 306.158C485.319 305.72 484.881 305.281 484.442 304.403C484.003 303.964 483.564 303.526 483.125 302.648C482.663 302.164 482.358 301.553 482.248 300.893C481.809 300.454 481.809 299.576 481.37 299.138C480.931 298.699 480.931 297.821 480.493 297.382C480.054 296.944 480.054 296.066 479.615 295.627C479.176 294.75 479.176 294.311 478.737 293.433C478.737 292.994 478.299 292.117 478.299 291.678C478.299 290.8 477.86 290.361 477.86 289.484C477.86 289.045 477.421 288.167 477.421 287.729C476.982 285.535 476.543 283.341 476.543 281.147V275.881C476.543 251.308 487.952 230.684 505.505 218.397C508.576 216.203 511.209 214.448 514.72 213.131C517.791 211.815 521.302 210.499 524.373 209.182H524.812C526.567 208.743 527.884 208.305 529.639 207.866H530.078C531.833 207.427 533.149 207.427 534.905 206.988H535.343C537.099 206.549 538.854 206.549 540.17 206.549H552.457C553.773 206.549 554.651 206.988 555.967 206.988H556.845C558.161 207.427 559.478 207.427 560.794 207.866C561.233 207.866 561.672 208.305 562.111 208.305C562.988 208.743 563.866 208.743 564.743 209.182C565.182 209.182 565.621 209.621 566.06 209.621C566.937 210.06 568.254 210.499 569.132 210.937C569.57 210.937 570.009 211.376 570.448 211.815C570.887 212.254 571.764 212.693 572.203 213.131C572.642 213.57 573.081 213.57 573.52 214.009C574.02 214.551 574.614 214.997 575.275 215.326C576.152 215.764 576.591 216.642 577.469 217.081L580.979 220.591C581.857 221.908 583.173 223.224 584.051 224.54C584.49 225.418 584.929 225.857 585.367 226.734C585.367 227.173 585.806 227.173 585.806 227.612C589.317 235.072 591.511 242.97 591.072 251.308C590.633 265.349 585.367 280.708 575.714 293.433ZM662.159 164.863L659.526 183.293L654.699 214.887L642.412 292.994C642.412 293.872 641.973 294.75 641.973 295.627V298.699C641.973 299.138 642.412 299.576 642.412 300.015V300.454C642.412 300.893 642.851 301.332 643.29 301.77L645.045 303.526C646.8 304.842 648.994 305.281 651.188 305.281C649.433 307.914 647.239 310.108 644.606 311.424C644.167 311.424 644.167 311.863 643.729 311.863C643.29 312.302 642.412 312.741 641.973 313.179C641.535 313.618 641.096 313.618 640.657 313.618C640.218 314.057 639.341 314.057 638.902 314.496C638.024 314.935 636.708 315.373 635.391 315.812C634.953 315.812 634.514 316.251 633.636 316.251C632.758 316.69 631.881 316.69 631.003 316.69C630.564 316.69 630.126 316.69 629.248 317.129C628.37 317.129 627.493 317.567 626.176 317.567H613.012C612.573 317.567 612.135 317.567 612.135 317.129C611.696 317.129 611.696 317.129 611.257 316.69C610.818 316.69 610.379 316.251 610.379 316.251C610.379 316.251 609.941 316.251 609.941 315.812C609.502 315.812 609.063 315.373 608.624 315.373H608.185C606.43 314.496 604.675 313.179 603.358 311.424V310.985C602.92 310.547 602.92 310.108 602.481 309.669C602.481 309.669 602.481 309.23 602.042 309.23C601.603 308.791 601.603 308.353 601.603 307.914V307.475C601.603 307.036 601.164 306.597 601.164 305.72V305.281C601.164 304.842 600.726 303.964 600.726 303.526V300.893C600.726 298.699 600.726 296.944 601.164 294.75L619.155 182.854C619.594 181.537 619.594 180.221 619.594 178.466C620.472 173.2 620.911 168.373 621.35 163.108V150.382C622.227 150.382 622.666 149.943 623.544 149.943C624.421 149.943 625.299 149.505 626.176 149.505C627.493 149.066 629.248 149.066 631.003 148.627C631.881 148.627 632.758 148.627 633.636 148.188C636.269 147.749 638.902 147.749 641.973 147.31C644.167 147.31 645.923 146.872 648.117 146.872C653.382 146.433 659.087 146.433 664.353 146.433C664.353 149.943 663.914 154.331 663.914 158.719C662.597 161.791 662.159 163.546 662.159 164.863ZM781.953 305.72C776.687 313.618 765.278 318.884 751.675 318.884H747.287C745.971 318.884 744.654 318.445 743.338 318.006L739.389 316.69C733.245 314.057 729.735 307.914 731.49 296.066L731.929 293.872C731.49 295.188 730.612 296.066 729.735 297.382C728.418 299.576 726.663 301.77 725.347 303.526C723.591 305.281 721.836 307.036 720.081 308.353C719.203 309.23 718.326 309.669 717.448 310.547C715.648 311.874 713.74 313.048 711.744 314.057C708.233 315.812 704.284 317.567 700.335 318.445C698.58 318.884 696.824 319.323 695.069 319.323C693.314 319.323 691.997 319.761 690.242 319.761H686.293C685.854 319.761 684.976 319.761 684.538 319.323C684.099 319.323 683.66 319.323 683.221 318.884C682.782 318.884 682.344 318.445 681.905 318.445C681.466 318.445 681.027 318.006 680.588 318.006C680.588 318.006 680.15 318.006 680.15 317.567C670.057 313.179 666.985 301.332 669.618 285.535L676.639 240.776C676.639 239.46 677.078 238.143 677.078 237.266V235.949C677.078 235.072 677.078 234.633 677.517 233.755V230.245C677.956 227.612 677.956 225.418 677.956 222.785V215.764C677.956 213.131 677.956 210.937 677.517 207.866C677.956 207.866 678.394 207.427 679.272 207.427C679.711 207.427 680.15 207.427 681.027 206.988H720.959C721.397 216.642 719.203 229.806 717.448 242.093L711.305 279.83C711.305 280.708 710.427 287.29 710.427 289.045C710.427 290.8 710.427 292.994 710.866 294.75C710.866 295.627 711.305 296.505 711.744 297.821C712.182 298.26 712.621 299.138 713.06 299.138H713.499C714.815 299.138 717.009 297.821 719.642 295.188C723.591 291.239 726.663 286.412 729.296 281.585C730.174 279.391 731.49 277.636 732.368 275.003C733.245 272.809 734.123 270.176 735 267.982C735.439 266.666 735.878 265.349 735.878 264.033L738.95 242.532C739.388 239.46 739.827 236.827 740.266 234.194L741.583 221.908C742.021 217.958 742.46 213.57 742.46 208.743C747.726 208.305 768.35 205.672 784.147 206.111C783.708 217.958 782.392 229.806 780.198 241.654L771.86 294.311C771.86 301.77 775.371 305.72 781.953 305.72ZM806.526 291.678C806.526 289.045 806.526 286.412 806.965 284.218L815.741 229.367C813.986 229.367 813.108 229.806 812.23 229.806C810.036 230.245 809.159 230.245 808.281 230.684C806.965 231.123 805.21 231.123 803.893 231.561C802.576 223.718 802.576 215.709 803.893 207.866C805.648 207.866 807.404 207.866 810.036 207.427H820.568C823.639 199.09 828.466 192.069 830.221 182.415C832.854 181.976 836.365 181.537 839.875 181.099C841.63 181.099 842.508 180.66 843.825 180.66C845.141 180.66 846.457 180.66 848.213 180.221C852.601 179.782 857.427 179.782 863.132 179.782C862.693 187.242 861.816 196.457 860.499 207.427H868.398C880.684 207.427 885.511 206.111 889.46 203.039C891.654 206.988 892.971 211.376 892.971 215.764C892.971 221.908 891.216 225.857 871.908 226.296H857.427L848.651 281.147V284.657C848.651 292.117 852.162 298.26 857.866 298.26C867.081 298.26 869.275 291.239 872.786 291.239C881.123 292.555 885.95 297.382 885.95 297.382C879.807 309.23 864.01 320.2 847.335 320.2C821.884 319.762 807.404 308.353 806.526 291.678Z" fill="url(#paint0_linear_461_25)"/>
</g>
<defs>
<linearGradient id="paint0_linear_461_25" x1="83.3725" y1="233.317" x2="917.105" y2="233.317" gradientUnits="userSpaceOnUse">
<stop stop-color="#52C3E7"/>
<stop offset="1" stop-color="#0089CC"/>
</linearGradient>
<clipPath id="clip0_461_25">
<rect width="1000" height="500" fill="white"/>
</clipPath>
</defs>
</svg>
