<svg width="834" height="500" viewBox="0 0 834 500" fill="none" xmlns="http://www.w3.org/2000/svg">
<g clip-path="url(#clip0_461_19)">
<path d="M0 0H834V500H0V0Z" fill="#6461FC"/>
<path d="M211.919 239.125C200.744 234.958 194.614 231.725 194.614 226.633C194.614 222.316 198.133 219.858 204.413 219.858C215.898 219.858 227.682 224.325 235.797 228.333L240.384 199.808C233.962 196.725 220.785 191.641 202.57 191.641C189.718 191.641 179.001 195.025 171.354 201.341C163.381 207.975 159.261 217.533 159.261 229.108C159.261 250.075 171.962 259.025 192.621 266.575C205.94 271.358 210.385 274.758 210.385 279.991C210.385 285.075 206.098 288.008 198.292 288.008C188.642 288.008 172.73 283.233 162.313 277.067L157.726 305.9C166.6 310.983 183.138 316.233 200.277 316.233C213.904 316.233 225.23 313 232.886 306.825C241.46 300.042 245.897 290.017 245.897 277.058C245.897 255.625 232.894 246.692 211.919 239.125ZM320.64 222.317L325.235 193.942H300.991V159.5L268.398 164.908L263.686 193.942L252.218 195.816L247.932 222.317H263.644V277.983C263.644 292.483 267.314 302.508 274.82 308.683C281.091 313.766 290.124 316.233 302.834 316.233C312.625 316.233 318.596 314.533 322.725 313.458V283.383C320.431 284 315.219 285.083 311.716 285.083C304.21 285.083 300.999 281.233 300.999 272.442V222.317H320.64ZM393.448 192.283C382.739 192.283 374.157 197.95 370.796 208.133L368.495 193.942H335.276V313.916H373.248V236.042C377.994 230.192 384.716 228.067 393.907 228.067C395.908 228.067 398.043 228.067 400.645 228.525V193.217C398.291 192.626 395.875 192.316 393.448 192.292M428.96 182.075C439.985 182.075 448.867 172.975 448.867 161.883C448.867 150.625 439.985 141.675 428.96 141.675C426.311 141.67 423.687 142.191 421.241 143.207C418.795 144.223 416.575 145.715 414.71 147.594C412.845 149.474 411.372 151.705 410.377 154.158C409.381 156.611 408.883 159.236 408.91 161.883C408.896 164.525 409.404 167.145 410.404 169.59C411.405 172.036 412.879 174.261 414.741 176.137C416.604 178.012 418.818 179.502 421.258 180.521C423.698 181.54 426.315 182.068 428.96 182.075ZM409.828 193.95H447.941V313.916H409.828V193.95ZM555.953 204.742C549.214 195.958 539.882 191.641 527.939 191.641C516.913 191.641 507.272 196.266 498.248 205.975L496.247 193.95H462.887V358.333L500.85 352.008V313.458C506.39 315.244 512.169 316.18 517.989 316.233C527.48 316.233 541.258 313.766 551.966 302.041C562.224 290.791 567.437 273.358 567.437 250.383C567.437 230.033 563.601 214.608 555.953 204.742ZM524.419 278.758C521.358 284.617 516.613 287.708 511.109 287.708C507.554 287.756 504.039 286.962 500.85 285.392V228.333C507.272 221.55 513.093 220.783 515.245 220.783C524.878 220.783 529.623 231.266 529.623 251.775C529.623 263.491 527.955 272.6 524.419 278.758ZM676.266 252.85C676.266 233.733 672.129 218.617 664.022 207.975C655.749 197.192 643.356 191.641 627.585 191.641C595.293 191.641 575.235 215.683 575.235 254.242C575.235 275.833 580.589 292.025 591.156 302.35C600.647 311.608 614.274 316.233 631.872 316.233C648.101 316.233 663.105 312.383 672.588 306.058L668.468 279.842C659.127 284.925 648.252 287.7 636.008 287.7C628.661 287.7 623.615 286.158 619.937 282.925C615.951 279.533 613.666 273.975 612.898 266.117H675.807C675.965 264.267 676.266 255.625 676.266 252.85ZM612.59 242.675C613.666 225.558 618.261 217.533 626.985 217.533C635.55 217.533 639.995 225.717 640.604 242.675H612.59Z" fill="white"/>
</g>
<defs>
<clipPath id="clip0_461_19">
<rect width="834" height="500" fill="white"/>
</clipPath>
</defs>
</svg>
